<?xml version="1.0" encoding="utf-8"?>
<!-- Svg Vector Icons : http://www.onlinewebfonts.com/icon -->
<!DOCTYPE svg PUBLIC "-//W3C//DTD SVG 1.1//EN" "http://www.w3.org/Graphics/SVG/1.1/DTD/svg11.dtd">
<svg version="1.1" xmlns="http://www.w3.org/2000/svg" xmlns:xlink="http://www.w3.org/1999/xlink" x="0px" y="0px" viewBox="0 0 256 256" enable-background="new 0 0 256 256" xml:space="preserve">
<metadata> Svg Vector Icons : http://www.onlinewebfonts.com/icon </metadata>
<g><g><path fill="#fff" d="M195.2,214.5c2.5,0,4.7,0.8,6.5,2.4c1.8,1.6,3.2,3.2,4.3,4.9c1.3,2.3,2.3,4.7,3.2,7.2c-3.6,3.4-7.7,6.2-12.3,8.5c-4,2.3-8.9,4.3-14.8,6c-5.9,1.7-12.6,2.5-20.2,2.5c-7.6,0-15.1-1.1-22.7-3.3c-7.6-2.2-14.4-5.9-20.3-11.1c-6-5.2-10.8-12-14.5-20.5c-3.7-8.5-5.5-19.2-5.5-32v-76H46.9c0.6-3.8,1.6-7.6,2.8-11.4c1.3-3.8,3-7.2,5.2-10.3c2.2-3.1,4.8-5.5,7.9-7.4c3.1-1.9,6.6-2.8,10.6-2.8h25.2V54.8c0-2.7-0.1-5.2-0.3-7.6c-0.2-2.3-0.7-4.3-1.6-5.8c-0.8-1.6-2.2-2.8-3.9-3.6c-1.8-0.8-4.3-1.3-7.4-1.3c0-2.7,0.9-5.7,2.8-8.8c1.9-3.2,4.5-6,7.7-8.7s7.2-4.8,11.7-6.5c4.5-1.7,9.4-2.5,14.7-2.5c7.8,0,14.4,2,19.7,6.1c5.4,4.1,8,11.1,8,21v34.1h59c-1.7,6.9-3.5,12.5-5.5,16.6c-2,4.1-4.2,7.3-6.5,9.6c-2.3,2.3-4.7,3.8-7.1,4.6c-2.4,0.7-4.7,1.1-6.8,1.1h-33.1v75.1c0,8,0.8,14.6,2.4,19.7c1.6,5.2,3.6,9.2,6.1,12.1c2.5,2.9,5.3,5,8.2,6.1c2.9,1.2,5.8,1.7,8.5,1.7c3.4,0,5.9-0.2,7.7-0.5c1.8-0.3,3.3-0.7,4.4-1.3c1.2-0.5,2.3-0.9,3.3-1.3C191.8,214.6,193.3,214.5,195.2,214.5L195.2,214.5z"/></g></g>
</svg>